<svg xmlns="http://www.w3.org/2000/svg" width="320" height="91">
	<defs>
		<style>.cls-2{fill:#fff}</style>
	</defs>
	<g id="AEC">
		<rect id="Rectangle_328" width="47.69" height="46.501" rx="8.448" transform="translate(136.151)" fill="#fa0f00"/>
		<g id="_256" transform="translate(146.132 9.826)">
			<path id="Path_3187" class="cls-2" d="M173.269 34.962H167.6a1.231 1.231 0 01-1.162-.749l-6.149-14.407a.267.267 0 00-.517 0l-3.84 9.128a.319.319 0 00.169.418h.012a.27.27 0 00.12 0h4.211a.664.664 0 01.6.4l1.843 4.108a.75.75 0 01-.391.985h-.014a.673.673 0 01-.293.061h-15.331a.7.7 0 01-.7-.7 1.01 1.01 0 01.06-.276l9.757-23.25a1.324 1.324 0 011.24-.861h5.623a1.324 1.324 0 011.24.861l9.826 23.25a.826.826 0 01-.638 1.025z" transform="translate(-146.161 -9.826)"/>
		</g>
		<path id="Path_3188" data-name="Path 3188" class="cls-2" d="M5.839 79.629L4.306 84.34a.336.336 0 01-.345.258H.258c-.215 0-.284-.129-.249-.318l6.372-18.386a5.679 5.679 0 00.319-1.946.215.215 0 01.189-.224h5.1c.164 0 .224 0 .258.19l7.234 20.4c.06.155 0 .284-.164.284h-4.144a.318.318 0 01-.344-.224L13.2 79.629zm6.217-3.987c-.637-2.1-1.912-5.959-2.515-8.224-.508 2.136-1.662 5.641-2.488 8.224z" transform="translate(0 -.011)"/>
		<path id="Path_3189" data-name="Path 3189" class="cls-2" d="M19.686 76.822c0-4.555 3.444-8.379 9.24-8.379a7.745 7.745 0 011.059.06v-6.277a.2.2 0 01.169-.226.178.178 0 01.046 0h4.022c.155 0 .189.069.189.2v18.824a18.2 18.2 0 00.129 2.334c0 .155 0 .224-.224.284a16.078 16.078 0 01-6.277 1.275c-4.719 0-8.353-2.678-8.353-8.095zM30.019 72.3a3.3 3.3 0 00-1.179-.164 4.257 4.257 0 00-4.565 4.464c0 3.152 1.817 4.53 4.246 4.53a4.418 4.418 0 001.464-.181z" transform="translate(0 -.011)"/>
		<path id="Path_3190" data-name="Path 3190" class="cls-2" d="M52.366 76.641c0 5-3.247 8.319-7.837 8.319-5.451 0-7.87-4.108-7.87-8.224 0-4.521 3.022-8.25 7.931-8.25 5.132-.043 7.776 3.85 7.776 8.155zm-11.195 0c0 2.8 1.3 4.59 3.445 4.59 1.851 0 3.255-1.593 3.255-4.529 0-2.481-1.025-4.556-3.445-4.556-1.877-.009-3.272 1.645-3.272 4.495z" transform="translate(0 -.011)"/>
		<path id="Path_3191" data-name="Path 3191" class="cls-2" d="M58.773 62c.249 0 .318 0 .318.258V68.8a10.262 10.262 0 012.678-.353 7.3 7.3 0 017.645 6.926c.011.22.011.441 0 .661 0 5.95-4.719 8.887-9.558 8.887a16.7 16.7 0 01-5-.732.383.383 0 01-.2-.319V62.226c0-.155.069-.224.224-.224zm2.2 10.2a6.451 6.451 0 00-1.878.258v8.611a4.936 4.936 0 001.18.13 4.387 4.387 0 004.616-4.78c-.004-2.878-1.691-4.219-3.922-4.219z" transform="translate(-.01 -.011)"/>
		<path id="Path_3192" data-name="Path 3192" class="cls-2" d="M75.35 77.838c.163 1.817 1.438 3.316 4.555 3.316a9.867 9.867 0 003.918-.732c.1-.061.2 0 .2.163v3.023A.352.352 0 0183.8 84a10.733 10.733 0 01-4.874.922c-6.028 0-8.094-4.108-8.094-8.06 0-4.4 2.7-8.414 7.75-8.414 4.814 0 6.725 3.729 6.725 6.889A9.642 9.642 0 0185.1 77.5a.269.269 0 01-.25.259 31.246 31.246 0 01-3.281.12zm4.142-3.083a9.424 9.424 0 001.593-.069v-.223a2.584 2.584 0 00-2.648-2.518h-.073a3.014 3.014 0 00-3.058 2.807z" transform="translate(-.014 -.011)"/>
		<path id="Path_3193" data-name="Path 3193" class="cls-2" d="M108.615 84.314c0 .25-.094.284-.318.284H95.328c-.19 0-.258-.1-.258-.284V64.008c0-.189.068-.284.258-.284h12.59c.249 0 .318 0 .344.259l.353 3.444c0 .164 0 .293-.224.293H99.5v4.306h8.138c.164 0 .259.06.259.249v3.5c0 .19-.13.224-.259.224h-8.12v4.65h9.395c.258 0 .292.1.258.293z" transform="translate(-.018 -.011)"/>
		<path id="Path_3194" data-name="Path 3194" class="cls-2" d="M109.829 69.08a.189.189 0 01.164-.318h4.426c.259 0 .319.06.414.25l2.712 5.261h.061l2.867-5.322c.069-.189.129-.189.284-.189h3.893c.189 0 .284.129.189.284-1.05 1.722-3.565 5.8-4.719 7.492 1.473 2.256 3.987 6.148 5.1 7.75.1.155 0 .284-.189.284h-4.556a.4.4 0 01-.413-.284l-2.833-5.3-3 5.4a.379.379 0 01-.388.19H109.9c-.2 0-.258-.164-.163-.319 1.274-1.946 3.444-5.545 4.779-7.517z" transform="translate(-.021 -.011)"/>
		<path id="Path_3195" data-name="Path 3195" class="cls-2" d="M141.313 76.185c0 5.83-4.78 8.732-9.748 8.732a4.046 4.046 0 01-.6 0v5.416c0 .164 0 .259-.259.293-1.308.121-3.763.345-3.952.379s-.224-.069-.224-.224V72.008c0-.447-.06-1.619-.1-2.1a.138.138 0 01.118-.155.115.115 0 01.037 0 20.5 20.5 0 016.691-1.309c5.524-.001 8.037 3.756 8.037 7.741zm-10.334-3.729v8.7a4.869 4.869 0 001.016.068 4.5 4.5 0 004.779-4.753c0-2.738-1.4-4.306-3.883-4.306a6.243 6.243 0 00-1.929.293z" transform="translate(-.024 -.011)"/>
		<path id="Path_3196" data-name="Path 3196" class="cls-2" d="M147.255 77.838c.163 1.817 1.438 3.316 4.555 3.316a9.867 9.867 0 003.918-.732c.1-.061.2 0 .2.163v3.023a.352.352 0 01-.228.392 10.733 10.733 0 01-4.874.922c-6.028 0-8.094-4.108-8.094-8.06 0-4.4 2.7-8.414 7.707-8.414 4.813 0 6.725 3.729 6.725 6.889a9.684 9.684 0 01-.164 2.131.268.268 0 01-.25.258 31.249 31.249 0 01-3.281.121zm4.142-3.083a9.424 9.424 0 001.593-.069v-.223a2.585 2.585 0 00-2.649-2.517h-.055a3.031 3.031 0 00-3.066 2.807z" transform="translate(-.027 -.011)"/>
		<path id="Path_3197" data-name="Path 3197" class="cls-2" d="M162.944 68.762a.344.344 0 01.379.284 6.033 6.033 0 01.353 1.783 6.652 6.652 0 015.107-2.386c.189 0 .258.06.258.25v3.927c0 .155-.069.215-.292.215-2.291-.1-4.143.611-4.806 1.378V84.34c0 .189-.06.258-.284.258h-3.823c-.259 0-.319-.1-.319-.284v-11a35.581 35.581 0 00-.163-4.305c0-.164 0-.224.189-.224z" transform="translate(-.03 -.011)"/>
		<path id="Path_3198" data-name="Path 3198" class="cls-2" d="M170.187 64.585a2.385 2.385 0 012.313-2.455h.175a2.318 2.318 0 012.455 2.17 2.7 2.7 0 010 .284 2.344 2.344 0 01-2.187 2.489 2.173 2.173 0 01-.3 0 2.311 2.311 0 01-2.454-2.489zm.224 4.427c0-.155.06-.25.258-.25h3.918c.189 0 .25.06.25.25v15.3c0 .189 0 .284-.284.284h-3.824c-.224 0-.318-.1-.318-.284z" transform="translate(-.032 -.011)"/>
		<path id="Path_3199" data-name="Path 3199" class="cls-2" d="M181.6 77.838c.155 1.817 1.438 3.316 4.555 3.316a9.867 9.867 0 003.918-.732c.095-.061.19 0 .19.163v3.023c0 .224-.061.318-.216.387a10.745 10.745 0 01-4.9.922c-6.028 0-8.087-4.108-8.087-8.06 0-4.4 2.7-8.414 7.751-8.414 4.813 0 6.725 3.729 6.725 6.889a10.191 10.191 0 01-.189 2.17.268.268 0 01-.25.259 31.246 31.246 0 01-3.281.12zm4.142-3.083a9.636 9.636 0 001.593-.069v-.223a2.584 2.584 0 00-2.649-2.517h-.055a3.023 3.023 0 00-3.066 2.807z" transform="translate(-.034 -.011)"/>
		<path id="Path_3200" data-name="Path 3200" class="cls-2" d="M193.816 72.456c0-1.085-.069-2.738-.129-3.444 0-.155 0-.25.224-.25h3.341c.259 0 .353.1.414.25a4.152 4.152 0 01.258 1.059 6.961 6.961 0 014.521-1.628c2.454 0 5.356 1.275 5.356 6.407v9.473c0 .189-.06.284-.284.284h-3.824c-.223 0-.318-.1-.318-.284v-9.094c0-1.912-.861-2.928-2.489-2.928a3.868 3.868 0 00-2.644.982V84.34c0 .163-.094.258-.284.258H194.1c-.223 0-.284-.1-.284-.284z" transform="translate(-.037 -.011)"/>
		<path id="Path_3201" data-name="Path 3201" class="cls-2" d="M222.122 84.15c0 .164 0 .224-.155.259a9.971 9.971 0 01-3.574.508c-5.167 0-8.413-3.445-8.413-8.155s3.6-8.319 9.016-8.319a8.5 8.5 0 012.936.353c.155.061.19.155.19.345v3.281c0 .224-.121.258-.25.224a7.974 7.974 0 00-2.678-.379c-2.678 0-4.624 1.464-4.624 4.305 0 3.316 2.454 4.4 4.684 4.4a10.2 10.2 0 002.644-.293c.2-.06.258 0 .258.129z" transform="translate(-.04 -.011)"/>
		<path id="Path_3202" data-name="Path 3202" class="cls-2" d="M227.857 77.838c.155 1.817 1.429 3.316 4.555 3.316a9.871 9.871 0 003.919-.732c.094-.061.189 0 .189.163v3.023c0 .224-.06.318-.224.387a10.68 10.68 0 01-4.874.922c-5.985 0-8.1-4.108-8.1-8.06 0-4.4 2.713-8.414 7.751-8.414 4.813 0 6.725 3.729 6.725 6.889a10.128 10.128 0 01-.164 2.136.266.266 0 01-.249.258 31.249 31.249 0 01-3.281.121zM232 74.755a9.636 9.636 0 001.593-.069v-.223a2.582 2.582 0 00-2.648-2.517h-.064a3.013 3.013 0 00-3.057 2.807z" transform="translate(-.043 -.011)"/>
		<path id="Path_3203" data-name="Path 3203" class="cls-2" d="M262.079 83.892c0 .224-.069.388-.259.448a13.808 13.808 0 01-4.426.577c-6.183 0-11-3.669-11-10.644 0-6.467 4.461-10.867 11.505-10.867a10.646 10.646 0 014.142.542.353.353 0 01.224.388v3.444c0 .284-.164.284-.284.224a9.849 9.849 0 00-4.142-.706c-4.306 0-6.889 2.644-6.889 6.786 0 4.977 3.634 6.889 6.984 6.889a11.954 11.954 0 003.883-.508c.164-.069.259 0 .259.155z" transform="translate(-.047 -.011)"/>
		<path id="Path_3204" data-name="Path 3204" class="cls-2" d="M264.128 62.26c0-.163.06-.258.319-.258h3.789c.224 0 .318.1.318.258v17.826c0 .861.284 1.214 1.051 1.214a3.474 3.474 0 00.577 0c.12 0 .155.06.155.224v2.738c0 .259 0 .319-.224.388a5.33 5.33 0 01-1.972.284c-2.3 0-4.013-.861-4.013-4.4z" transform="translate(-.059 -.011)"/>
		<path id="Path_3205" data-name="Path 3205" class="cls-2" d="M286.922 76.641c0 5-3.246 8.319-7.836 8.319-5.451 0-7.871-4.108-7.871-8.224 0-4.521 3.031-8.25 7.931-8.25 5.133-.043 7.776 3.85 7.776 8.155zm-11.194 0c0 2.8 1.309 4.59 3.444 4.59 1.852 0 3.255-1.593 3.255-4.529 0-2.481-1.024-4.556-3.444-4.556-1.869-.009-3.273 1.645-3.273 4.495z" transform="translate(-.059 -.011)"/>
		<path id="Path_3206" data-name="Path 3206" class="cls-2" d="M302.957 81.059a26.853 26.853 0 00.2 3.281c0 .189-.069.258-.293.258h-3.376c-.249 0-.318-.069-.379-.224a7.894 7.894 0 01-.189-.99 6.479 6.479 0 01-4.366 1.533c-3.186 0-5.391-1.723-5.391-6.149v-9.756c0-.216.069-.25.293-.25h3.884c.189 0 .224.06.224.25v9.248c0 1.722.732 2.833 2.488 2.833a3.517 3.517 0 002.481-.921V68.977c0-.189.094-.25.318-.25h3.858c.224 0 .25.061.25.25z" transform="translate(-.059 -.011)"/>
		<path id="Path_3207" data-name="Path 3207" class="cls-2" d="M305.213 76.822c0-4.555 3.4-8.379 9.24-8.379a7.709 7.709 0 011.051.06v-6.277a.206.206 0 01.187-.224h4.049c.155 0 .19.069.19.2v18.822a18.2 18.2 0 00.129 2.334c0 .155 0 .224-.224.284a16.065 16.065 0 01-6.278 1.275c-4.719 0-8.344-2.678-8.344-8.095zm10.287-4.486a3.238 3.238 0 00-1.18-.164 4.25 4.25 0 00-4.556 4.461c0 3.151 1.817 4.529 4.237 4.529a4.4 4.4 0 001.5-.2z" transform="translate(-.059 -.011)"/>
	</g>
</svg>