<svg xmlns="http://www.w3.org/2000/svg" width="24" height="24">
	<rect width="24" height="24" rx="4" fill="none"/>
	<path d="M2.617 21.924A1 1 0 012 21V11a2 2 0 012-2h2a1 1 0 011 1 1 1 0 01-1 1H4v7.586l1.293-1.292A1 1 0 016 17h7v-2a1 1 0 011-1 1 1 0 011 1v2a2 2 0 01-2 2H6.414l-2.707 2.707A1 1 0 013 22a.984.984 0 01-.383-.076zm17.676-7.217L17.586 12H11a2 2 0 01-2-2V4a2 2 0 012-2h9a2 2 0 012 2v10a1 1 0 01-.617.924A.984.984 0 0121 15a1 1 0 01-.707-.293zM11 10h7a1 1 0 01.707.293L20 11.585V4h-9z" fill="#212a35" stroke="transparent" stroke-miterlimit="10"/>
</svg>