<svg width="614" height="192"
	xmlns="http://www.w3.org/2000/svg"
	xmlns:xlink="http://www.w3.org/1999/xlink">
	<defs>
		<path id="a" d="M0 0h163.297v163.678H0z"/>
		<path id="c" d="M0 0h419.048v164.946H0z"/>
	</defs>
	<g fill="none" fill-rule="evenodd">
		<g>
			<mask id="b" fill="#fff">
				<use xlink:href="#a"/>
			</mask>
			<path d="M146.91 0c-9.061 0-16.385 7.345-16.385 16.416 0 9.043 7.324 16.377 16.385 16.377 9.043 0 16.387-7.334 16.387-16.377C163.297 7.345 155.953 0 146.91 0M110.969 68.966l20.475-26.953a4.172 4.172 0 00.218-4.728l-8.696-13.954a4.173 4.173 0 00-3.568-1.964l-37.534.262-20.58-.015c-1.611-.001-2.327 2.025-1.073 3.036l5.767 4.65a6.308 6.308 0 002.796 1.29l35.744 6.735-44.216 47.519-58.195 8.267c-2.016.286-2.876 2.72-1.488 4.21l5.684 6.094a5.832 5.832 0 004.356 1.853l56.18-.923a11.704 11.704 0 005.893-1.705l13.461-8.197 28.409 22.548a5.54 5.54 0 012.043 3.591l5.408 39.819a3.787 3.787 0 003.753 3.277h2.893a3.788 3.788 0 003.788-3.773l.166-44.189a10.558 10.558 0 00-2.081-6.333l-24.787-33.41 5.184-7.007" fill="#DB3256" mask="url(#b)"/>
		</g>
		<path d="M254.481 58.347c0-8.133-6.358-13.159-14.638-13.159h-22.178v26.614h22.178c8.28 0 14.638-5.027 14.638-13.455zm-2.07 66.978l-19.369-35.041h-15.377v35.041h-20.996v-98.62h46.132c20.552 0 33.267 13.455 33.267 31.789 0 17.299-11.089 26.762-21.735 29.276l22.327 37.555h-24.249zM291.736 125.325v-98.62h69.789v18.483h-48.792v20.7h47.757v18.481h-47.757v22.475h48.792v18.481h-69.789M435.745 58.494c0-8.28-6.358-13.306-14.637-13.306h-22.18v26.466h22.18c8.279 0 14.637-5.028 14.637-13.16zm-57.812 66.831v-98.62h46.131c21.439 0 33.12 14.491 33.12 31.789 0 17.152-11.828 31.642-33.12 31.642h-25.136v35.189h-20.995zM469.453 125.325v-98.62h21.144v80.139h41.695v18.481h-62.839" fill="#004750"/>
		<g transform="translate(194.859 26.705)">
			<mask id="d" fill="#fff">
				<use xlink:href="#c"/>
			</mask>
			<path fill="#004750" mask="url(#d)" d="M360.349 98.62V58.256L322.498 0h23.953l24.396 39.478L395.243 0h23.805l-37.704 58.256V98.62h-20.995"/>
			<path d="M0 143.754c0-12.689 9.424-21.252 21.56-21.252 8.254 0 13.429 4.251 16.446 9.179l-6.097 3.203c-1.972-3.449-5.976-5.975-10.349-5.975-8.132 0-14.168 6.16-14.168 14.845 0 8.563 6.036 14.846 14.168 14.846 4.373 0 8.377-2.587 10.349-5.976l6.16 3.08c-3.142 4.929-8.255 9.302-16.509 9.302-12.136 0-21.56-8.624-21.56-21.252M76.632 143.754c0-8.501-5.359-14.845-13.613-14.845-8.316 0-13.613 6.344-13.613 14.845 0 8.44 5.297 14.846 13.613 14.846 8.254 0 13.613-6.406 13.613-14.846zm-34.619 0c0-12.258 8.686-21.252 21.006-21.252 12.258 0 21.006 8.994 21.006 21.252 0 12.259-8.748 21.252-21.006 21.252-12.32 0-21.006-8.993-21.006-21.252z" fill="#DB3256" mask="url(#d)"/>
		</g>
		<path fill="#DB3256" d="M321.267 190.972v-31.724L308.7 190.972h-3.08l-12.628-31.724v31.724h-7.207v-41.087h10.163l11.212 28.213 11.15-28.213h10.164v41.087h-7.207M368.64 190.972l-7.946-30.368-8.008 30.368h-7.7l-11.704-41.087h8.008l8.008 31.601 8.501-31.601h5.729l8.501 31.601 8.007-31.601h8.07l-11.766 41.087h-7.7M416.999 162.698c0-3.943-2.957-6.468-7.022-6.468h-9.917v13.059h9.917c4.065 0 7.022-2.588 7.022-6.591zm-.677 28.274l-9.055-15.338h-7.207v15.338h-7.207v-41.087h18.048c8.131 0 13.491 5.236 13.491 12.874 0 7.27-4.806 11.274-9.795 12.074l10.102 16.139h-8.377zM447.986 157.092l-7.392 19.589h14.784l-7.392-19.589zm12.443 33.88l-3.019-7.946h-18.849l-3.018 7.946h-8.193l16.139-41.087h8.994l16.138 41.087h-8.192zM497.145 162.759c0-3.942-2.896-6.529-6.961-6.529h-9.917v12.998h9.917c4.065 0 6.961-2.588 6.961-6.469zm-24.085 28.213v-41.087h18.11c8.623 0 13.366 5.853 13.366 12.874 0 6.961-4.804 12.814-13.366 12.814h-10.903v15.399h-7.207z"/>
	</g>
</svg>